<?xml version="1.0" encoding="UTF-8"?><svg id="care-hands" xmlns="http://www.w3.org/2000/svg" viewBox="0 0 64 64">
    <g fill="none" stroke="currentColor" stroke-width="2.5" stroke-linecap="round" stroke-linejoin="round">
        <path d="M32 30 l-7-7 c-2-2-2-5 0-7 s5-2 7 0 c2-2 5-2 7 0 s2 5 0 7 z"/>
        <path d="M8 38 c6-4 12-4 18 0 l6 3 c2 1 2 4 0 5 l-8 2"/>
        <path d="M56 38 c-6-4-12-4-18 0 l-6 3 c-2 1-2 4 0 5 l8 2"/>
        <path d="M8 52 l12 2 c4 1 8 0 12-2 c4 2 8 3 12 2 l12-2"/>
    </g>
</svg>
