<?xml version="1.0" encoding="UTF-8"?><svg id="mychart" xmlns="http://www.w3.org/2000/svg" viewBox="0 0 24 24">
    <path fill="currentColor" d="M21.5,6h-9.2l-1.7-2.1c-.2-.3-.6-.4-.9-.4H2.5c-.8,0-1.5.7-1.5,1.5v14c0,.8.7,1.5,1.5,1.5h19c.8,0,1.5-.7,1.5-1.5V7.5c0-.8-.7-1.5-1.5-1.5ZM21.5,19H2.5V5h6.9l1.7,2.1c.2.3.6.4.9.4h9.5v11.5Z"/>
    <path fill="currentColor" d="M12,17.6l-.4-.3c-2.1-1.6-3.6-2.8-3.6-4.5,0-1.3,1-2.3,2.3-2.3.7,0,1.3.3,1.7.8.4-.5,1-.8,1.7-.8,1.3,0,2.3,1,2.3,2.3,0,1.7-1.5,2.9-3.6,4.5l-.4.3Z"/>
</svg>
