<svg width="288" height="22" viewBox="0 0 288 22" xmlns="http://www.w3.org/2000/svg" xmlns:xlink="http://www.w3.org/1999/xlink">
    <defs>
        <path id="0s4g8llqya" d="M0 0h48.772v21.074H0z"/>
    </defs>
    <g fill="none" fill-rule="evenodd">
        <g>
            <mask id="0aswcuad5b" fill="#fff">
                <use xlink:href="#0s4g8llqya"/>
            </mask>
            <path d="M43.443 8.79c-1.505 0-2.56 1.205-2.92 3.102l5.298-.06c0-1.597-.993-3.042-2.378-3.042zm-.271 12.253c-3.16 0-5.6-2.498-5.6-5.99 0-4.276 2.62-7.196 6.323-7.196 2.98 0 4.636 1.686 4.636 4.366v.541l-8.129-.06c-.06.331-.09.874-.09 1.535 0 3.072 1.927 5.089 4.486 5.089 1.536 0 2.318-.542 3.523-1.566l.45.693c-1.715 1.565-3.13 2.588-5.599 2.588zm-13.909-.24v-.692c1.355-.091 1.747-.391 1.987-.904V3.613c0-1.025-.15-1.445-2.227-1.626v-.603L34.532 0l.18.511-.873 1.084v17.612c.302.602.873.813 2.108.904v.692h-6.684zm-9.182-4.637c-.121.482-.21.903-.21 1.567 0 .903.511 1.805 1.504 1.805.904 0 1.415-.3 2.228-.933l.03-4.064c-.783.361-2.71 1.204-3.552 1.625zm6.022 4.908c-1.627 0-2.409-1.114-2.47-1.896-1.024 1.083-2.347 1.896-3.612 1.896-1.626 0-3.01-.993-3.01-2.71 0-.843.21-1.716.631-2.407l5.991-2.168V11.56c0-1.354-.632-2.65-1.987-2.65-.812 0-1.595.995-1.655 2.53l-2.71.452v-.301c.903-2.71 3.883-3.764 5.328-3.764 2.74 0 3.734 1.445 3.704 3.673l-.09 6.322c-.03 1.234.632 1.536 1.234 1.536.482 0 .963-.302 1.535-.873v.873c-.662.783-1.836 1.716-2.89 1.716zM16.228 4.425l-4.968 8.37v5.63c.572 1.354 2.017 1.535 3.401 1.595v.783H4.937v-.783c1.385-.06 3.071-.27 3.523-1.174v-5.811l-5.058-8.55C2.53 3.04 1.686 2.56 0 2.439v-.783h8.46v.783c-1.596.09-2.107.391-2.56.753l4.697 8.128 4.607-8.098c-.482-.36-1.114-.693-2.71-.783v-.783h7.225v.783c-1.625.06-2.65.602-3.491 1.987z" fill="#FEFEFE" mask="url(#0aswcuad5b)"/>
        </g>
        <path d="M61.759 21.086c-1.6 0-2.916-.463-3.715-.8l-.362-3.379h.568c.18.826.8 1.91 1.522 2.45.49.363 1.445.904 2.296.904 1.651 0 2.529-1.032 2.529-2.167 0-1.445-.93-1.806-2.477-2.477-2.916-1.213-3.948-1.987-3.948-3.948 0-2.193 2.194-3.69 5.109-3.69 1.367 0 2.425.362 3.122.671v3.277h-.542c-.078-.877-.413-1.91-1.16-2.373-.285-.181-1.085-.697-1.988-.697-1.625 0-2.45 1.007-2.45 1.987 0 1.316.67 1.857 2.656 2.632 2.71 1.083 3.794 1.934 3.794 3.844 0 2.348-2.22 3.766-4.954 3.766M80.634 20.364c-1.496.465-1.987.697-4.334.697-4.078 0-7.019-2.915-7.019-6.631 0-3.793 3.122-6.424 7.07-6.424 1.961 0 3.045.36 4.54.722v3.405h-.54c-.078-.877-.44-1.857-1.162-2.321-.361-.258-1.264-.981-3.019-.981-2.812 0-4.412 2.347-4.412 5.135 0 3.664 2.065 6.244 5.34 6.244 1.06 0 1.807-.44 2.143-.723.774-.593 1.316-1.522 1.496-2.451l.593.104-.696 3.224zM92.24 20.803v-.568c.903-.026 1.702-.283 1.91-.67V14.92h-6.71v4.645c.156.387 1.007.644 1.884.67v.568h-5.985v-.568c.877-.026 1.728-.283 1.883-.67V9.476c-.155-.387-1.006-.646-1.883-.697v-.515h5.985v.515c-.877.051-1.728.31-1.883.697v4.387h6.708V9.476c-.207-.387-1.006-.646-1.91-.697v-.515h6.039v.515c-.904.051-1.704.31-1.91.697v10.089c.206.387 1.006.644 1.91.67v.568H92.24zM106.175 8.857c-1.858 0-3.664 2.064-3.664 5.135 0 3.612 1.729 6.218 4.825 6.218 1.961 0 3.793-1.988 3.793-5.11 0-3.791-1.91-6.243-4.954-6.243m.206 12.255c-3.973 0-6.27-2.734-6.27-6.528 0-3.844 3.175-6.604 7.148-6.604 4.024 0 6.27 2.76 6.27 6.398 0 3.974-3.175 6.734-7.148 6.734M122.063 8.857c-1.857 0-3.664 2.064-3.664 5.135 0 3.612 1.73 6.218 4.826 6.218 1.96 0 3.792-1.988 3.792-5.11 0-3.791-1.91-6.243-4.954-6.243m.207 12.255c-3.974 0-6.27-2.734-6.27-6.528 0-3.844 3.174-6.604 7.147-6.604 4.025 0 6.27 2.76 6.27 6.398 0 3.974-3.174 6.734-7.147 6.734M130.905 20.803v-.568c.8-.051 2.013-.258 2.271-.903V9.476c-.155-.387-1.006-.618-1.884-.671v-.541h6.167v.54c-.878.054-1.91.31-2.064.698v10.347l3.56-.103c1.342-.027 2.22-1.317 2.245-2.968h.541v4.025h-10.836zM156 8.857c-1.857 0-3.663 2.064-3.663 5.135 0 3.612 1.729 6.218 4.824 6.218 1.962 0 3.794-1.988 3.794-5.11 0-3.791-1.91-6.243-4.954-6.243m.206 12.255c-3.973 0-6.27-2.734-6.27-6.528 0-3.844 3.173-6.604 7.147-6.604 4.025 0 6.27 2.76 6.27 6.398 0 3.974-3.174 6.734-7.147 6.734M174.38 11.437c-.077-1.729-.8-2.193-2.27-2.193h-2.786v4.877l2.684-.104c1.29-.052 1.857-.077 2.038-1.522h.516v4.231h-.542c-.155-1.6-.671-1.6-2.012-1.626l-2.684-.025v4.18c.259.645 1.394.929 2.296.98v.568h-6.604v-.568c.876-.051 1.83-.232 2.09-.877V9.553c-.182-.438-1.085-.696-1.987-.722v-.568h8.152c.44 0 .878-.025 1.161-.128h.49v3.302h-.541zM193.916 20.803v-.568c.903-.051 1.909-.31 2.064-.696l-.387-7.224-.025-2.065-.62 1.574L191 20.829h-.774l-3.432-9.366-.516-1.548-.051 1.393-.542 8.075c.13.388 1.084.8 1.96.852v.568h-5.133v-.568c.903-.051 1.754-.464 1.986-.852l.542-7.068c.052-.723.155-2.117.155-2.194 0-.13 0-.412-.025-.645-.207-.31-.878-.618-1.755-.671v-.541h4.411l.645 1.883 2.814 7.767 3.224-7.587.851-2.063h3.948v.54c-.903.054-1.574.337-1.754.646v.465c0 .206.077 1.754.128 2.4l.414 7.224c.232.386 1.058.645 1.935.696v.568h-6.115zM206.332 20.803l-4.463.051v-.542c.903-.05 2.244-.31 2.503-.954V9.476c-.156-.387-1.007-.618-1.91-.671v-.541h8.153c.543 0 .903-.052 1.162-.129h.464v3.302h-.516c-.078-1.728-.773-2.193-2.27-2.193h-2.865v4.67h2.684c1.341 0 1.884-.026 2.064-1.47h.49v4.076h-.516c-.154-1.574-.594-1.6-2.038-1.6h-2.684v4.257c.052.258.155.542.516.672l3.123-.052c1.315-.026 2.192-.593 2.244-2.271h.49v3.277h-6.63zM220.724 8.83h-1.187v10.605c.232.284 1.29.594 2.038.594 3.096 0 4.696-2.115 4.696-5.212 0-4.025-2.09-5.986-5.547-5.986m1.187 11.998-6.555-.026v-.568c.878-.026 1.807-.284 1.962-.67V9.475c-.155-.386-1.162-.644-2.065-.696v-.515c2.271-.103 4.542-.233 6.296-.233 4.49 0 7.172 2.322 7.172 6.09 0 3.844-2.94 6.733-6.81 6.708M230.445 20.803v-.568c.93-.051 1.858-.31 2.013-.696V9.502c-.155-.387-1.084-.644-2.013-.697v-.541h6.244v.54c-.928.054-1.857.31-2.012.698v10.037c.155.386 1.084.645 2.012.696v.568h-6.244zM249.735 20.364c-1.496.465-1.986.697-4.335.697-4.076 0-7.017-2.915-7.017-6.631 0-3.793 3.122-6.424 7.07-6.424 1.96 0 3.044.36 4.541.722v3.405h-.543c-.076-.877-.439-1.857-1.16-2.321-.362-.258-1.265-.981-3.02-.981-2.811 0-4.411 2.347-4.411 5.135 0 3.664 2.063 6.244 5.34 6.244 1.058 0 1.806-.44 2.142-.723.774-.593 1.315-1.522 1.496-2.451l.594.104-.697 3.224zM252.413 20.803v-.568c.93-.051 1.858-.31 2.013-.696V9.502c-.155-.387-1.084-.644-2.013-.697v-.541h6.244v.54c-.928.054-1.857.31-2.012.698v10.037c.155.386 1.084.645 2.012.696v.568h-6.244zM273.444 9.683v7.56c0 1.057.05 2.863.128 3.715h-1.187l-7.662-9.392-.852-1.265.077 1.162v4.515c0 1.083.103 2.58.13 3.406.18.387 1.29.8 2.193.851v.568h-5.445v-.568c.903-.052 1.78-.464 1.936-.851v-7.07c0-.98 0-1.961-.078-2.683-.207-.413-1.007-.774-1.884-.826v-.542h3.974l1.11 1.42 6.398 7.869v-4.515c0-1.084-.077-2.761-.103-3.354-.18-.413-1.316-.826-2.22-.878v-.542h5.393v.542c-.902.052-1.702.465-1.908.878M281.37 20.803l-4.464.051v-.542c.903-.05 2.244-.31 2.502-.954V9.476c-.155-.387-1.007-.618-1.91-.671v-.541h8.154c.542 0 .903-.052 1.162-.129h.463v3.302h-.515c-.078-1.728-.774-2.193-2.27-2.193h-2.866v4.67h2.684c1.342 0 1.884-.026 2.064-1.47h.491v4.076h-.516c-.155-1.574-.594-1.6-2.039-1.6h-2.684v4.257c.052.258.155.542.518.672l3.122-.052c1.314-.026 2.192-.593 2.243-2.271H288v3.277h-6.63z" fill="#FFF"/>
    </g>
</svg>
